HIERARCHY
ROOT Hips
{
	OFFSET 0.000000 100.481300 0.000000
	CHANNELS 6 Xposition Yposition Zposition Xrotation Yrotation Zrotation 
	JOINT Spine
	{
		OFFSET -0.279200 12.230698 -2.892100
		CHANNELS 3 Xrotation Yrotation Zrotation
		JOINT Spine1
		{
			OFFSET -0.232667 10.192268 -1.242267
			CHANNELS 3 Xrotation Yrotation Zrotation
			JOINT Spine1_split
			{
				OFFSET -0.232667 10.192268 -1.242267
				CHANNELS 3 Xrotation Yrotation Zrotation
				JOINT Spine2
				{
					OFFSET -0.232667 10.192268 -1.242267
					CHANNELS 3 Xrotation Yrotation Zrotation
					JOINT Neck
					{
						OFFSET -0.418800 17.814194 8.416900
						CHANNELS 3 Xrotation Yrotation Zrotation
						JOINT Head
						{
							OFFSET 0.000000 7.031097 3.806800
							CHANNELS 3 Xrotation Yrotation Zrotation
							JOINT HeadTop_End
							{
								OFFSET 0.000000 24.646606 12.978600
								CHANNELS 3 Xrotation Yrotation Zrotation
								End Site
								{
									OFFSET 0.000000 0.000000 0.000000
								}
							}
						}
					}
					JOINT LeftShoulder
					{
						OFFSET 8.476499 7.247704 -3.868750
						CHANNELS 3 Xrotation Yrotation Zrotation
						JOINT LeftShoulder_split
						{
							OFFSET 8.476499 7.247704 -3.868750
							CHANNELS 3 Xrotation Yrotation Zrotation
							JOINT LeftArm
							{
								OFFSET 9.308998 -2.777710 0.208600
								CHANNELS 3 Xrotation Yrotation Zrotation
								JOINT LeftForeArm
								{
									OFFSET 29.972298 0.000000 0.000000
									CHANNELS 3 Xrotation Yrotation Zrotation
									JOINT LeftHand
									{
										OFFSET 26.026505 0.000000 0.000000
										CHANNELS 3 Xrotation Yrotation Zrotation
										JOINT LeftHandThumb1
										{
											OFFSET 12.240501 -7.147949 9.207150
											CHANNELS 3 Xrotation Yrotation Zrotation
											JOINT LeftHandThumb2
											{
												OFFSET 4.138618 -2.389435 2.389433
												CHANNELS 3 Xrotation Yrotation Zrotation
												JOINT LeftHandThumb3
												{
													OFFSET 2.726913 -1.574387 1.574386
													CHANNELS 3 Xrotation Yrotation Zrotation
													JOINT LeftHandThumb4
													{
														OFFSET 3.941010 -2.275345 2.275342
														CHANNELS 3 Xrotation Yrotation Zrotation
														End Site
														{
															OFFSET 0.000000 0.000000 0.000000
														}
													}
												}
											}
										}
										JOINT LeftHandIndex1
										{
											OFFSET 24.424698 -1.985611 5.953459
											CHANNELS 3 Xrotation Yrotation Zrotation
											JOINT LeftHandIndex2
											{
												OFFSET 6.426697 0.000000 0.000000
												CHANNELS 3 Xrotation Yrotation Zrotation
												JOINT LeftHandIndex3
												{
													OFFSET 5.337898 0.000000 0.000000
													CHANNELS 3 Xrotation Yrotation Zrotation
													JOINT LeftHandIndex4
													{
														OFFSET 4.409401 0.000000 0.000000
														CHANNELS 3 Xrotation Yrotation Zrotation
														End Site
														{
															OFFSET 0.000000 0.000000 0.000000
														}
													}
												}
											}
										}
										JOINT LeftHandMiddle1
										{
											OFFSET 23.810104 0.000000 0.000000
											CHANNELS 3 Xrotation Yrotation Zrotation
											JOINT LeftHandMiddle2
											{
												OFFSET 7.176498 0.000000 0.000000
												CHANNELS 3 Xrotation Yrotation Zrotation
												JOINT LeftHandMiddle3
												{
													OFFSET 6.774902 0.000000 0.000000
													CHANNELS 3 Xrotation Yrotation Zrotation
													JOINT LeftHandMiddle4
													{
														OFFSET 5.403328 0.000000 0.000000
														CHANNELS 3 Xrotation Yrotation Zrotation
														End Site
														{
															OFFSET 0.000000 0.000000 0.000000
														}
													}
												}
											}
										}
										JOINT LeftHandRing1
										{
											OFFSET 22.908401 -0.839279 -6.020567
											CHANNELS 3 Xrotation Yrotation Zrotation
											JOINT LeftHandRing2
											{
												OFFSET 6.337502 0.000000 0.000000
												CHANNELS 3 Xrotation Yrotation Zrotation
												JOINT LeftHandRing3
												{
													OFFSET 5.779297 0.000000 0.000000
													CHANNELS 3 Xrotation Yrotation Zrotation
													JOINT LeftHandRing4
													{
														OFFSET 4.965698 0.000000 0.000000
														CHANNELS 3 Xrotation Yrotation Zrotation
														End Site
														{
															OFFSET 0.000000 0.000000 0.000000
														}
													}
												}
											}
										}
										JOINT LeftHandPinky1
										{
											OFFSET 20.037003 -1.530319 -10.950146
											CHANNELS 3 Xrotation Yrotation Zrotation
											JOINT LeftHandPinky2
											{
												OFFSET 5.254700 0.000000 0.000000
												CHANNELS 3 Xrotation Yrotation Zrotation
												JOINT LeftHandPinky3
												{
													OFFSET 4.810204 0.000000 0.000000
													CHANNELS 3 Xrotation Yrotation Zrotation
													JOINT LeftHandPinky4
													{
														OFFSET 3.647202 0.000000 0.000000
														CHANNELS 3 Xrotation Yrotation Zrotation
														End Site
														{
															OFFSET 0.000000 0.000000 0.000000
														}
													}
												}
											}
										}
									}
								}
							}
						}
					}
					JOINT RightShoulder
					{
						OFFSET -7.570500 7.247704 -3.868750
						CHANNELS 3 Xrotation Yrotation Zrotation
						JOINT RightShoulder_split
						{
							OFFSET -7.570500 7.247704 -3.868750
							CHANNELS 3 Xrotation Yrotation Zrotation
							JOINT RightArm
							{
								OFFSET -9.308998 -2.777710 0.208500
								CHANNELS 3 Xrotation Yrotation Zrotation
								JOINT RightForeArm
								{
									OFFSET -29.972300 0.000000 0.000000
									CHANNELS 3 Xrotation Yrotation Zrotation
									JOINT RightHand
									{
										OFFSET -26.026505 0.000000 0.000000
										CHANNELS 3 Xrotation Yrotation Zrotation
										JOINT RightHandThumb1
										{
											OFFSET -12.240601 -7.148026 9.207092
											CHANNELS 3 Xrotation Yrotation Zrotation
											JOINT RightHandThumb2
											{
												OFFSET -4.138618 -2.389435 2.389433
												CHANNELS 3 Xrotation Yrotation Zrotation
												JOINT RightHandThumb3
												{
													OFFSET -2.726974 -1.574417 1.574421
													CHANNELS 3 Xrotation Yrotation Zrotation
													JOINT RightHandThumb4
													{
														OFFSET -3.941010 -2.275345 2.275343
														CHANNELS 3 Xrotation Yrotation Zrotation
														End Site
														{
															OFFSET 0.000000 0.000000 0.000000
														}
													}
												}
											}
										}
										JOINT RightHandIndex1
										{
											OFFSET -24.424698 -1.985657 5.953444
											CHANNELS 3 Xrotation Yrotation Zrotation
											JOINT RightHandIndex2
											{
												OFFSET -6.426697 0.000000 0.000000
												CHANNELS 3 Xrotation Yrotation Zrotation
												JOINT RightHandIndex3
												{
													OFFSET -5.337898 0.000000 0.000000
													CHANNELS 3 Xrotation Yrotation Zrotation
													JOINT RightHandIndex4
													{
														OFFSET -4.409401 0.000000 0.000000
														CHANNELS 3 Xrotation Yrotation Zrotation
														End Site
														{
															OFFSET 0.000000 0.000000 0.000000
														}
													}
												}
											}
										}
										JOINT RightHandMiddle1
										{
											OFFSET -23.810097 0.000000 0.000000
											CHANNELS 3 Xrotation Yrotation Zrotation
											JOINT RightHandMiddle2
											{
												OFFSET -7.176498 0.000000 0.000000
												CHANNELS 3 Xrotation Yrotation Zrotation
												JOINT RightHandMiddle3
												{
													OFFSET -6.774902 0.000000 0.000000
													CHANNELS 3 Xrotation Yrotation Zrotation
													JOINT RightHandMiddle4
													{
														OFFSET -5.403328 0.000000 0.000000
														CHANNELS 3 Xrotation Yrotation Zrotation
														End Site
														{
															OFFSET 0.000000 0.000000 0.000000
														}
													}
												}
											}
										}
										JOINT RightHandRing1
										{
											OFFSET -22.908302 -0.839325 -6.020576
											CHANNELS 3 Xrotation Yrotation Zrotation
											JOINT RightHandRing2
											{
												OFFSET -6.337502 0.000000 0.000000
												CHANNELS 3 Xrotation Yrotation Zrotation
												JOINT RightHandRing3
												{
													OFFSET -5.779297 0.000000 0.000000
													CHANNELS 3 Xrotation Yrotation Zrotation
													JOINT RightHandRing4
													{
														OFFSET -4.965698 0.000000 0.000000
														CHANNELS 3 Xrotation Yrotation Zrotation
														End Site
														{
															OFFSET 0.000000 0.000000 0.000000
														}
													}
												}
											}
										}
										JOINT RightHandPinky1
										{
											OFFSET -20.037003 -1.530334 -10.950259
											CHANNELS 3 Xrotation Yrotation Zrotation
											JOINT RightHandPinky2
											{
												OFFSET -5.254700 0.000000 0.000000
												CHANNELS 3 Xrotation Yrotation Zrotation
												JOINT RightHandPinky3
												{
													OFFSET -4.810204 0.000000 0.000000
													CHANNELS 3 Xrotation Yrotation Zrotation
													JOINT RightHandPinky4
													{
														OFFSET -3.647202 0.000000 0.000000
														CHANNELS 3 Xrotation Yrotation Zrotation
														End Site
														{
															OFFSET 0.000000 0.000000 0.000000
														}
													}
												}
											}
										}
									}
								}
							}
						}
					}
				}
			}
		}
	}
	JOINT LeftUpLeg
	{
		OFFSET 15.427100 -6.655098 0.678600
		CHANNELS 3 Xrotation Yrotation Zrotation
		JOINT LeftLeg
		{
			OFFSET 4.081073 -39.591068 13.024000
			CHANNELS 3 Xrotation Yrotation Zrotation
			JOINT LeftFoot
			{
				OFFSET -4.081074 -37.707932 -15.979700
				CHANNELS 3 Xrotation Yrotation Zrotation
				JOINT LeftToeBase
				{
					OFFSET 5.346399 -15.068900 20.645000
					CHANNELS 3 Xrotation Yrotation Zrotation
					JOINT LeftToe_End
					{
						OFFSET 2.754700 0.931300 11.300900
						CHANNELS 3 Xrotation Yrotation Zrotation
						End Site
						{
							OFFSET 0.000000 0.000000 0.000000
						}
					}
				}
			}
		}
	}
	JOINT RightUpLeg
	{
		OFFSET -15.569500 -6.655098 0.678600
		CHANNELS 3 Xrotation Yrotation Zrotation
		JOINT RightLeg
		{
			OFFSET -4.081825 -39.591045 13.023800
			CHANNELS 3 Xrotation Yrotation Zrotation
			JOINT RightFoot
			{
				OFFSET 4.081824 -37.707954 -15.979600
				CHANNELS 3 Xrotation Yrotation Zrotation
				JOINT RightToeBase
				{
					OFFSET -5.346400 -15.068900 20.645000
					CHANNELS 3 Xrotation Yrotation Zrotation
					JOINT RightToe_End
					{
						OFFSET -2.754700 0.931300 11.300900
						CHANNELS 3 Xrotation Yrotation Zrotation
						End Site
						{
							OFFSET 0.000000 0.000000 0.000000
						}
					}
				}
			}
		}
	}
}
MOTION
Frames: 4
Frame Time: 0.016667
0.289058 78.876213 -0.157205 3.037465 -58.355074 6.232968 11.190421 0.276971 -2.458522 8.434588 0.027703 -5.592322 0.000000 0.000000 0.000000 8.457057 0.027854 -5.591866 -21.555654 25.063376 12.062569 -0.294040 25.465751 -3.208977 0.000000 0.000000 -0.000001 -6.221673 -11.503862 -4.023827 0.000000 0.000000 0.000000 -23.062178 9.568549 -36.639607 0.046103 -43.169114 -0.011164 22.743762 -5.685859 15.979292 -1.064236 -7.954897 8.490084 2.373393 19.986073 -2.038340 0.808197 1.237783 2.631747 -0.000000 -0.000000 -0.000001 13.340878 -1.006669 10.682261 -0.167590 0.303374 -31.105617 -0.143398 0.303646 -32.256275 -0.000000 -0.000000 -0.000001 8.495446 -0.329576 -0.915308 0.231516 0.661185 -29.901854 0.444098 0.213447 -44.357017 0.000001 -0.000001 -0.000000 6.111751 3.150906 -16.210964 0.047062 0.322394 -30.125475 0.408800 0.818959 -42.140665 0.000002 -0.000001 -0.000002 -5.636018 7.709845 -13.878621 0.224401 0.276610 -46.588369 0.261234 0.249366 -46.286840 -0.000002 0.000002 -0.000003 -5.488240 10.658259 2.466538 0.000000 0.000000 0.000000 -41.473803 -26.755574 30.079074 24.955438 111.862974 -23.308471 -8.702497 12.423032 -9.801966 0.265000 10.061126 -10.888486 1.383817 -17.412881 3.016288 3.342335 -13.253726 -8.262748 -0.000003 0.000002 -0.000001 19.443593 11.174447 -13.340205 -0.118650 -0.322722 18.035599 -0.089912 -0.286603 23.256591 -0.000001 -0.000001 -0.000001 4.320481 2.436949 -4.811725 0.349121 -0.461246 26.890318 0.467477 0.154065 39.044838 0.000000 0.000000 0.000000 -7.005648 -10.695116 5.719837 0.111866 -0.089221 26.155894 0.451295 -0.473553 33.265057 0.000001 -0.000001 -0.000001 -19.433519 -20.238187 5.987880 0.223770 -0.085827 36.844561 0.260789 -0.047495 36.471697 -0.000001 -0.000002 0.000000 -34.682417 8.729305 27.684336 40.318313 -8.743026 -10.519667 -7.477122 -1.700985 -10.845888 -0.354880 1.238055 0.775505 -0.000000 -0.000001 -0.000000 -31.023436 -7.189573 -29.208375 46.890270 5.288285 -6.185772 -19.302068 0.930658 23.072108 -0.351793 -0.997036 -0.771245 -0.000000 0.000000 -0.000000 
0.272061 78.866127 -0.097443 3.103221 -58.398336 6.256388 11.113118 0.294867 -2.425076 8.281116 0.065570 -5.543480 0.000000 0.000000 0.000000 8.303567 0.065715 -5.543006 -21.313513 24.821461 11.931884 -0.501503 25.223305 -3.073465 0.000000 0.000000 0.000001 -5.888018 -11.348859 -4.111616 0.000000 0.000000 0.000000 -23.088836 9.805515 -36.732095 -0.223605 -43.320362 -0.178061 22.774847 -5.786712 15.762774 -1.013347 -7.979034 8.385273 2.373237 19.985721 -2.038473 0.808360 1.238001 2.631754 -0.000001 0.000000 0.000002 13.392778 -0.857330 10.369734 -0.168837 0.304164 -31.279155 -0.145038 0.304759 -32.541664 0.000001 0.000000 -0.000001 8.501713 -0.177930 -1.121779 0.233306 0.661439 -30.053645 0.447214 0.213052 -44.579248 -0.000000 -0.000001 -0.000000 6.115917 3.344591 -16.345855 0.048446 0.323139 -30.253039 0.410732 0.818804 -42.310744 0.000000 -0.000000 -0.000001 -5.669048 7.954096 -13.849587 0.224919 0.276671 -46.648768 0.262217 0.249477 -46.389784 -0.000000 0.000001 -0.000001 -5.146260 10.690689 2.467578 0.000000 0.000000 0.000000 -41.573736 -27.076246 29.890055 27.927812 112.638343 -26.280025 -8.524184 12.683908 -9.630383 0.058321 10.763336 -10.139012 1.383873 -17.413043 3.016225 3.360113 -13.347156 -8.304071 -0.000002 0.000003 -0.000001 19.385110 11.008829 -11.664728 -0.125432 -0.326325 19.069067 -0.096744 -0.289699 24.356379 0.000000 0.000000 -0.000001 4.347769 1.811597 -3.663105 0.356064 -0.461073 27.691735 0.473712 0.156235 39.904595 -0.000001 0.000001 -0.000000 -6.837599 -11.512222 6.465784 0.115969 -0.091571 26.770262 0.454467 -0.472547 33.906125 -0.000002 -0.000000 0.000000 -19.227283 -20.531315 6.567960 0.226167 -0.086335 37.287331 0.263082 -0.047662 36.910346 0.000001 -0.000000 0.000001 -34.723032 8.636304 27.689319 40.485185 -8.666618 -10.475689 -7.498380 -1.700968 -10.893601 -0.382143 1.237694 0.720583 -0.000000 -0.000001 -0.000000 -30.997506 -7.056152 -29.123906 46.917799 5.184924 -6.258088 -19.247087 0.904881 23.204977 -0.402857 -0.996552 -0.750813 -0.000000 -0.000000 -0.000000 
0.256000 78.849861 -0.038783 3.169020 -58.441428 6.280121 11.103809 0.310137 -2.402056 8.263422 0.094344 -5.514617 0.000000 0.000000 0.000000 8.285892 0.094484 -5.514154 -21.429181 24.538196 11.838501 -0.484133 24.969425 -3.032912 0.000000 -0.000001 0.000000 -5.880222 -11.203453 -4.136703 0.000000 0.000000 0.000000 -23.070911 10.188977 -36.902546 -0.778803 -43.643994 -0.618939 22.885925 -5.874778 15.640305 -0.936058 -7.901295 8.281051 2.381445 20.006200 -2.031145 0.808437 1.238114 2.631722 0.000001 0.000000 -0.000000 13.380405 -0.903481 10.415425 -0.168408 0.303881 -31.216270 -0.144580 0.304478 -32.466587 -0.000002 0.000001 0.000000 8.500998 -0.157133 -1.020048 0.232485 0.661337 -29.983547 0.445408 0.213253 -44.452244 -0.000000 -0.000001 -0.000001 6.103013 3.435151 -16.138192 0.047754 0.322735 -30.188838 0.408958 0.819067 -42.144473 0.000001 -0.000000 -0.000000 -5.678007 8.064660 -13.509532 0.223983 0.276493 -46.546172 0.259982 0.249279 -46.154433 0.000001 0.000001 0.000001 -5.152141 10.691573 2.515983 0.000000 0.000000 0.000000 -41.675349 -27.395479 29.700354 30.754942 113.473812 -29.096384 -7.964719 12.641082 -9.574784 -0.272429 11.449451 -9.779557 1.392594 -17.434063 3.008413 3.351697 -13.302436 -8.284235 -0.000000 0.000001 -0.000001 19.283207 11.017624 -10.724528 -0.128892 -0.328167 19.592147 -0.100152 -0.291193 24.899357 0.000000 -0.000001 0.000000 4.335220 1.528079 -2.596401 0.361449 -0.460786 28.315637 0.478272 0.157902 40.543467 -0.000003 -0.000001 -0.000001 -6.574465 -12.132970 7.760421 0.121342 -0.094777 27.577519 0.458388 -0.470888 34.734565 -0.000000 -0.000000 -0.000000 -18.816295 -22.102982 7.642817 0.231389 -0.087312 38.248858 0.268357 -0.048120 37.897117 -0.000000 -0.000000 0.000000 -34.754236 8.549894 27.686252 40.642382 -8.585302 -10.433836 -7.542588 -1.699586 -10.900325 -0.418435 1.237255 0.645193 -0.000000 -0.000001 -0.000000 -30.963098 -6.929149 -29.035694 46.938928 5.073911 -6.326941 -19.214698 0.879178 23.303362 -0.462264 -0.995428 -0.711798 -0.000000 -0.000001 0.000000 
0.239053 78.802246 0.027548 3.276982 -58.479212 6.347643 11.090003 0.329877 -2.376270 8.236893 0.130315 -5.482834 0.000000 0.000000 0.000000 8.259357 0.130450 -5.482369 -21.566061 24.146867 11.698341 -0.461436 24.621503 -2.974631 -0.000000 0.000000 -0.000001 -5.870539 -11.061409 -4.171693 0.000000 0.000000 0.000000 -22.987242 10.659084 -37.048425 -1.551483 -44.072093 -1.371606 23.004902 -5.957701 15.638847 -0.867466 -7.784712 8.163935 2.371668 19.981942 -2.039798 0.808368 1.238162 2.631908 -0.000000 0.000000 0.000002 13.356448 -0.993997 10.520307 -0.167648 0.303515 -31.113195 -0.143837 0.303749 -32.322613 -0.000001 0.000000 -0.000001 8.488157 -0.166993 -0.852467 0.231254 0.661066 -29.882925 0.442629 0.213671 -44.247369 0.000001 -0.000000 -0.000001 6.084684 3.499115 -15.846324 0.046805 0.322351 -30.097420 0.406088 0.819124 -41.895824 -0.000000 0.000000 0.000001 -5.685241 8.137446 -13.084718 0.222758 0.276383 -46.402383 0.257140 0.249093 -45.829736 -0.000003 0.000001 -0.000002 -5.178394 10.652670 2.668577 0.000000 0.000000 0.000000 -41.781988 -27.790459 29.400734 35.112718 114.823430 -33.451371 -7.092254 12.745464 -9.489330 -0.610341 12.109793 -9.454120 1.382301 -17.409252 3.017644 3.337031 -13.225090 -8.249956 -0.000003 -0.000003 0.000001 19.197041 10.951357 -9.698047 -0.132384 -0.330074 20.134788 -0.103537 -0.293024 25.460413 0.000001 0.000001 -0.000001 4.354854 1.175971 -1.362044 0.367463 -0.460499 29.018998 0.483448 0.159796 41.255135 -0.000001 -0.000001 -0.000000 -6.208870 -12.853167 9.348206 0.127950 -0.098453 28.547267 0.462981 -0.468834 35.726548 -0.000000 0.000001 -0.000001 -18.118848 -23.348817 9.489324 0.237883 -0.088349 39.442461 0.274695 -0.048355 39.126308 0.000003 0.000001 0.000000 -34.833835 8.421552 27.670097 40.875311 -8.489167 -10.381713 -7.604380 -1.692535 -10.913917 -0.463052 1.236722 0.552440 -0.000000 0.000003 0.000000 -30.969614 -6.748996 -28.958609 47.028144 4.945053 -6.405398 -19.189025 0.844924 23.417382 -0.543813 -0.994333 -0.652413 0.000000 0.000001 0.000000 
